<svg width="32" height="32" viewBox="0 0 32 32" fill="none" xmlns="http://www.w3.org/2000/svg">
<path fill-rule="evenodd" clip-rule="evenodd" d="M24.2582 13.7068L25.7348 10.0111C25.919 9.56827 25.9353 9.07224 25.7806 8.61801C25.6259 8.16379 25.311 7.78333 24.8962 7.54953C24.665 7.427 24.4109 7.35491 24.1504 7.3379C23.8899 7.3209 23.6288 7.35936 23.3838 7.4508C23.1389 7.54224 22.9157 7.68463 22.7285 7.86878C22.5413 8.05294 22.3944 8.27476 22.2971 8.51995L21.0143 11.7355C20.9453 11.9101 20.8136 12.0518 20.6457 12.1321C20.4777 12.2124 20.2859 12.2253 20.1089 12.1683C17.6863 11.3806 15.0926 11.3044 12.6289 11.9485C12.4561 11.9936 12.273 11.9735 12.1138 11.892C11.9546 11.8105 11.8301 11.6731 11.7636 11.5056L10.601 8.59433C10.4228 8.12604 10.0727 7.74561 9.62376 7.53261C9.17483 7.31961 8.66192 7.29054 8.19231 7.45147C7.95747 7.53941 7.74243 7.67409 7.55987 7.84755C7.37732 8.02101 7.23096 8.22974 7.12944 8.4614C7.02792 8.69307 6.97329 8.94297 6.96879 9.19636C6.96428 9.44975 7.00999 9.70148 7.10321 9.93669L8.40278 13.1962C8.46539 13.3489 8.47573 13.5184 8.43214 13.6777C8.38855 13.837 8.29354 13.977 8.16224 14.0753C6.66448 15.1632 5.40436 16.5518 4.46054 18.1546C3.51671 19.7573 2.90946 21.5398 2.67667 23.3907C2.65209 23.6079 2.67332 23.8279 2.73896 24.0361C2.8046 24.2444 2.91315 24.4362 3.05745 24.5989C3.20175 24.7615 3.37851 24.8914 3.57605 24.9798C3.77359 25.0682 3.98742 25.1132 4.20341 25.1117H27.7961C28.0157 25.1109 28.2327 25.0625 28.4324 24.97C28.6322 24.8774 28.8101 24.7428 28.9543 24.5751C29.0985 24.4074 29.2057 24.2104 29.2686 23.9974C29.3316 23.7844 29.3489 23.5603 29.3195 23.34C28.8761 19.8884 27.1395 16.7412 24.4686 14.5487C24.3513 14.4481 24.2679 14.3128 24.2301 14.1619C24.1924 14.0109 24.2022 13.8518 24.2582 13.7068ZM12.6948 19.4046C12.6948 20.2476 12.0196 20.9309 11.1867 20.9309C10.3538 20.9309 9.67863 20.2476 9.67863 19.4046C9.67863 18.5616 10.3538 17.8783 11.1867 17.8783C12.0196 17.8783 12.6948 18.5616 12.6948 19.4046ZM21.039 20.9309C21.8719 20.9309 22.5471 20.2476 22.5471 19.4046C22.5471 18.5616 21.8719 17.8783 21.039 17.8783C20.2061 17.8783 19.5309 18.5616 19.5309 19.4046C19.5309 20.2476 20.2061 20.9309 21.039 20.9309Z" fill="url(#paint0_linear_240_6320)"/>
<defs>
<linearGradient id="paint0_linear_240_6320" x1="3.60008" y1="5.91176" x2="30.9142" y2="6.64045" gradientUnits="userSpaceOnUse">
<stop stop-color="#0DA300"/>
<stop offset="1" stop-color="#9EFF00"/>
</linearGradient>
</defs>
</svg>
