<svg width="48" height="48" viewBox="0 0 48 48" fill="none" xmlns="http://www.w3.org/2000/svg">
<path fill-rule="evenodd" clip-rule="evenodd" d="M14 18C12.8954 18 12 18.8954 12 20V44C12 46.2091 13.7909 48 16 48H31C33.2091 48 35 46.2091 35 44V41H39.2C40.3046 41 41.2 40.1046 41.2 39V26C41.2 24.8954 40.3046 24 39.2 24H35V20C35 18.8954 34.1046 18 33 18H14ZM35 38V27H37C37.5523 27 38 27.4477 38 28V37C38 37.5523 37.5523 38 37 38H35Z" fill="#FFC42B"/>
<path d="M17 26.5C17 25.6716 17.6716 25 18.5 25C19.3284 25 20 25.6716 20 26.5V39.5C20 40.3284 19.3284 41 18.5 41C17.6716 41 17 40.3284 17 39.5V26.5Z" fill="#FFA800"/>
<path d="M22 26.5C22 25.6716 22.6716 25 23.5 25C24.3284 25 25 25.6716 25 26.5V39.5C25 40.3284 24.3284 41 23.5 41C22.6716 41 22 40.3284 22 39.5V26.5Z" fill="#FFA800"/>
<path d="M27 26.5C27 25.6716 27.6716 25 28.5 25C29.3284 25 30 25.6716 30 26.5V39.5C30 40.3284 29.3284 41 28.5 41C27.6716 41 27 40.3284 27 39.5V26.5Z" fill="#FFA800"/>
<path fill-rule="evenodd" clip-rule="evenodd" d="M26.5 6C29.3773 6 31.7386 8.20945 31.9797 11.0243C32.151 11.0082 32.3245 11 32.5 11C35.5376 11 38 13.4624 38 16.5C38 19.5376 35.5376 22 32.5 22C31.8447 22 31.2162 21.8854 30.6334 21.6752C29.9996 23.0476 28.611 24 27 24C24.8561 24 23.1062 22.3134 23.0047 20.1946C22.1211 20.7068 21.0948 21 20 21C18.8427 21 17.762 20.6724 16.8455 20.1048C16.3661 21.7766 14.8259 23 13 23C10.7909 23 9 21.2091 9 19C9 17.5059 9.81923 16.203 11.033 15.5162C11.0112 15.3472 11 15.1749 11 15C11 12.7909 12.7909 11 15 11C15.1694 11 15.3364 11.0105 15.5003 11.031C16.5997 9.78551 18.2081 9 20 9C20.5204 9 21.0253 9.06625 21.5068 9.19078C22.3795 7.30681 24.2872 6 26.5 6Z" fill="white"/>
</svg>
