<svg width="48" height="48" viewBox="0 0 48 48" fill="none" xmlns="http://www.w3.org/2000/svg">
<path fill-rule="evenodd" clip-rule="evenodd" d="M14 14C12.8954 14 12 14.8954 12 16V40C12 42.2091 13.7909 44 16 44H31C33.2091 44 35 42.2091 35 40V37H39.2C40.3046 37 41.2 36.1046 41.2 35V22C41.2 20.8954 40.3046 20 39.2 20H35V16C35 14.8954 34.1046 14 33 14H14ZM35 34V23H37C37.5523 23 38 23.4477 38 24V33C38 33.5523 37.5523 34 37 34H35Z" fill="#FFC42B"/>
<rect x="17" y="21" width="3" height="16" rx="1.5" fill="#FFA800"/>
<rect x="22" y="21" width="3" height="16" rx="1.5" fill="#FFA800"/>
<rect x="27" y="21" width="3" height="16" rx="1.5" fill="#FFA800"/>
<path d="M26.5 2C29.3773 2 31.7386 4.20945 31.9797 7.02429C32.151 7.00822 32.3245 7 32.5 7C35.5376 7 38 9.46243 38 12.5C38 15.5376 35.5376 18 32.5 18C31.8447 18 31.2162 17.8854 30.6334 17.6752C29.9996 19.0476 28.611 20 27 20C24.8561 20 23.1062 18.3134 23.0047 16.1946C22.1211 16.7068 21.0948 17 20 17C18.8427 17 17.762 16.6724 16.8455 16.1048C16.3661 17.7766 14.8259 19 13 19C10.7909 19 9 17.2091 9 15C9 13.5059 9.81923 12.203 11.033 11.5162C11.0112 11.3472 11 11.1749 11 11C11 8.79086 12.7909 7 15 7C15.1694 7 15.3364 7.01053 15.5003 7.03098C16.5997 5.78551 18.2081 5 20 5C20.5204 5 21.0253 5.06625 21.5068 5.19078C22.3795 3.30681 24.2872 2 26.5 2Z" fill="white"/>
</svg>
