<svg width="48" height="48" viewBox="0 0 48 48" fill="none" xmlns="http://www.w3.org/2000/svg">
<path fill-rule="evenodd" clip-rule="evenodd" d="M38.9144 19.6572H6.57129V32.0002C6.57129 40.8367 13.7347 48.0002 22.5713 48.0002H22.9144C28.9274 48.0002 34.1656 44.6832 36.8993 39.7793C37.5435 39.9422 38.2187 40.0288 38.9144 40.0288C43.38 40.0288 47.0002 36.4599 47.0002 32.0574C47.0002 27.6549 43.38 24.0859 38.9144 24.0859L38.9144 19.6572ZM38.2894 36.4434C38.6963 35.0327 38.9144 33.5419 38.9144 32.0002V27.6288C38.9146 27.6288 38.9148 27.6288 38.9149 27.6288C41.3959 27.6288 43.407 29.6116 43.407 32.0574C43.407 34.5032 41.3959 36.486 38.9149 36.486C38.7027 36.486 38.4938 36.4715 38.2894 36.4434Z" fill="#EFEFFF"/>
<path d="M38.9144 19.6571C38.9144 21.1247 31.6741 22.3143 22.7428 22.3143C13.8115 22.3143 6.57129 21.1247 6.57129 19.6571C6.57129 18.1896 13.8115 17 22.7428 17C31.6741 17 38.9144 18.1896 38.9144 19.6571Z" fill="#BAB8FF"/>
<path d="M35.3208 20.5429C35.3208 21.0321 29.6895 21.4287 22.7429 21.4287C15.7963 21.4287 10.165 21.0321 10.165 20.5429C10.165 20.0538 15.7963 19.6572 22.7429 19.6572C29.6895 19.6572 35.3208 20.0538 35.3208 20.5429Z" fill="#362510"/>
<path fill-rule="evenodd" clip-rule="evenodd" d="M38.0013 19.3754C38.0015 19.3754 37.9998 19.3775 37.9956 19.3816C37.999 19.3774 38.0011 19.3754 38.0013 19.3754ZM37.5265 19.6572C37.4539 19.6245 37.3725 19.5904 37.2814 19.555C36.5581 19.274 35.4528 19.0012 34.0157 18.765C31.1576 18.2954 27.1715 18 22.7428 18C18.3142 18 14.3281 18.2954 11.47 18.765C10.0329 19.0012 8.92759 19.274 8.20424 19.555C8.11317 19.5904 8.03174 19.6245 7.95923 19.6572C8.03174 19.6898 8.11317 19.7239 8.20424 19.7593C8.92759 20.0403 10.0329 20.3131 11.47 20.5493C14.3281 21.0189 18.3142 21.3143 22.7428 21.3143C27.1715 21.3143 31.1576 21.0189 34.0157 20.5493C35.4528 20.3131 36.5581 20.0403 37.2814 19.7593C37.3725 19.7239 37.4539 19.6898 37.5265 19.6572ZM7.48435 19.3754C7.48454 19.3754 7.48665 19.3775 7.49009 19.3817C7.48587 19.3775 7.48415 19.3754 7.48435 19.3754ZM7.48435 19.9389C7.48415 19.9389 7.48587 19.9368 7.49009 19.9326C7.48665 19.9368 7.48454 19.9389 7.48435 19.9389ZM37.9956 19.9327C37.9998 19.9368 38.0015 19.9389 38.0013 19.9389C38.0011 19.9389 37.9991 19.9369 37.9956 19.9327ZM22.7428 22.3143C31.6741 22.3143 38.9144 21.1247 38.9144 19.6571C38.9144 18.1896 31.6741 17 22.7428 17C13.8115 17 6.57129 18.1896 6.57129 19.6571C6.57129 21.1247 13.8115 22.3143 22.7428 22.3143Z" fill="white"/>
</svg>
