<svg width="48" height="48" viewBox="0 0 48 48" fill="none" xmlns="http://www.w3.org/2000/svg">
<path fill-rule="evenodd" clip-rule="evenodd" d="M38.9144 12.6572H6.57129V25.0002C6.57129 33.8367 13.7347 41.0002 22.5713 41.0002H22.9144C28.9274 41.0002 34.1656 37.6832 36.8993 32.7793C37.5435 32.9422 38.2187 33.0288 38.9144 33.0288C43.38 33.0288 47.0002 29.4599 47.0002 25.0574C47.0002 20.6549 43.38 17.0859 38.9144 17.0859L38.9144 12.6572ZM38.2894 29.4434C38.6963 28.0327 38.9144 26.5419 38.9144 25.0002V20.6288C38.9146 20.6288 38.9142 20.6288 38.9144 20.6288C41.3953 20.6288 43.407 22.6116 43.407 25.0574C43.407 27.5032 41.3959 29.486 38.9149 29.486C38.7027 29.486 38.4938 29.4715 38.2894 29.4434Z" fill="#EFEFFF"/>
<path d="M38.9144 12.6571C38.9144 14.1247 31.6741 15.3143 22.7428 15.3143C13.8115 15.3143 6.57129 14.1247 6.57129 12.6571C6.57129 11.1896 13.8115 10 22.7428 10C31.6741 10 38.9144 11.1896 38.9144 12.6571Z" fill="#BAB8FF"/>
<path d="M35.3208 13.5429C35.3208 14.0321 29.6895 14.4287 22.7429 14.4287C15.7963 14.4287 10.165 14.0321 10.165 13.5429C10.165 13.0538 15.7963 12.6572 22.7429 12.6572C29.6895 12.6572 35.3208 13.0538 35.3208 13.5429Z" fill="#362510"/>
<path fill-rule="evenodd" clip-rule="evenodd" d="M38.0013 12.3754C38.0015 12.3754 37.9998 12.3775 37.9956 12.3816C37.999 12.3774 38.0011 12.3754 38.0013 12.3754ZM37.5265 12.6572C37.4539 12.6245 37.3725 12.5904 37.2814 12.555C36.5581 12.274 35.4528 12.0012 34.0157 11.765C31.1576 11.2954 27.1715 11 22.7428 11C18.3142 11 14.3281 11.2954 11.47 11.765C10.0329 12.0012 8.92759 12.274 8.20424 12.555C8.11317 12.5904 8.03174 12.6245 7.95923 12.6572C8.03174 12.6898 8.11317 12.7239 8.20424 12.7593C8.92759 13.0403 10.0329 13.3131 11.47 13.5493C14.3281 14.0189 18.3142 14.3143 22.7428 14.3143C27.1715 14.3143 31.1576 14.0189 34.0157 13.5493C35.4528 13.3131 36.5581 13.0403 37.2814 12.7593C37.3725 12.7239 37.4539 12.6898 37.5265 12.6572ZM7.48435 12.3754C7.48454 12.3754 7.48665 12.3775 7.49009 12.3817C7.48587 12.3775 7.48415 12.3754 7.48435 12.3754ZM7.48435 12.9389C7.48415 12.9389 7.48587 12.9368 7.49009 12.9326C7.48665 12.9368 7.48454 12.9389 7.48435 12.9389ZM37.9956 12.9327C37.9998 12.9368 38.0015 12.9389 38.0013 12.9389C38.0011 12.9389 37.9991 12.9369 37.9956 12.9327ZM22.7428 15.3143C31.6741 15.3143 38.9144 14.1247 38.9144 12.6571C38.9144 11.1896 31.6741 10 22.7428 10C13.8115 10 6.57129 11.1896 6.57129 12.6571C6.57129 14.1247 13.8115 15.3143 22.7428 15.3143Z" fill="white"/>
</svg>
