<svg width="48" height="48" viewBox="0 0 48 48" fill="none" xmlns="http://www.w3.org/2000/svg">
<path d="M11 11C11 9.89543 11.8954 9 13 9H34.5801C35.6847 9 36.5801 9.89543 36.5801 11V46C36.5801 47.1046 35.6847 48 34.5801 48H13C11.8954 48 11 47.1046 11 46V11Z" fill="#313DD8"/>
<path fill-rule="evenodd" clip-rule="evenodd" d="M19.4294 36.3465C18.5893 35.8763 17.6156 34.928 17.0622 34.0885C16.1761 32.7444 16.0804 31.2443 16.8485 30.738C17.6165 30.2316 18.9575 30.9108 19.8435 32.2549C19.9006 32.3414 19.9569 32.4324 20.0122 32.5272C20.1441 32.3415 20.3273 32.2096 20.546 32.1635C21.0925 32.0483 21.6531 32.5129 21.7982 33.2013C21.8585 33.4873 21.9545 34.0738 22.0068 34.6699C22.2266 34.6191 22.4591 34.5804 22.706 34.5543C23.6312 34.4565 24.6286 34.6284 25.5852 34.9943C25.6252 34.2971 25.7462 33.5393 25.8175 33.2013C25.9626 32.5129 26.5232 32.0483 27.0697 32.1635C27.2884 32.2096 27.4716 32.3415 27.6035 32.5272C27.6588 32.4324 27.7151 32.3414 27.7721 32.2549C28.6582 30.9108 29.9992 30.2316 30.7672 30.738C31.5353 31.2443 31.4396 32.7444 30.5535 34.0885C29.9644 34.9821 28.8993 35.9989 28.0258 36.4313C28.7299 37.0201 29.3185 37.7087 29.7107 38.4429C30.8575 40.5897 31.1387 42.6712 28.2043 42.6712H19.426C16.8165 42.4339 17.2313 40.1533 18.4173 37.9414C18.7414 37.3369 19.0676 36.8026 19.4294 36.3465Z" fill="#6B76FF"/>
<path d="M28.3441 22.1879C28.3011 22.0606 28.191 21.9759 28.0679 21.9759H24.5115L26.5629 17.5657C26.6274 17.4269 26.5941 17.2572 26.4831 17.1608C26.4295 17.1139 26.365 17.0908 26.3008 17.0908C26.2321 17.0908 26.1635 17.1175 26.1084 17.17L23.9446 19.2364L19.629 23.3577C19.5359 23.4467 19.5024 23.5903 19.5454 23.7176C19.5884 23.845 19.6982 23.93 19.8213 23.93H23.3776L21.3263 28.3402C21.2618 28.479 21.2951 28.6486 21.4061 28.745C21.4597 28.7919 21.5242 28.815 21.5884 28.815C21.6571 28.815 21.7257 28.7883 21.7808 28.7359L23.9446 26.6695L28.2602 22.5481C28.3536 22.4592 28.3868 22.3156 28.3441 22.1879Z" fill="#FFAC33"/>
<path fill-rule="evenodd" clip-rule="evenodd" d="M33.3383 8.28736L32.4409 6.5L27.4617 9H13C11.8954 9 11 9.89543 11 11V13.4571H36.5801V11C36.5801 9.89543 35.6847 9 34.5801 9H31.919L33.3383 8.28736Z" fill="#6B76FF"/>
</svg>
