<svg width="48" height="48" viewBox="0 0 48 48" fill="none" xmlns="http://www.w3.org/2000/svg">
<path d="M11 8C11 6.89543 11.8954 6 13 6H34.5801C35.6847 6 36.5801 6.89543 36.5801 8V43C36.5801 44.1046 35.6847 45 34.5801 45H13C11.8954 45 11 44.1046 11 43V8Z" fill="#313DD8"/>
<path fill-rule="evenodd" clip-rule="evenodd" d="M19.4294 33.3465C18.5893 32.8763 17.6156 31.928 17.0622 31.0885C16.1761 29.7444 16.0804 28.2443 16.8485 27.738C17.6165 27.2316 18.9575 27.9108 19.8435 29.2549C19.9006 29.3414 19.9569 29.4324 20.0122 29.5272C20.1441 29.3415 20.3273 29.2096 20.546 29.1635C21.0925 29.0483 21.6531 29.5129 21.7982 30.2013C21.8585 30.4873 21.9545 31.0738 22.0068 31.6699C22.2266 31.6191 22.4591 31.5804 22.706 31.5543C23.6312 31.4565 24.6286 31.6284 25.5852 31.9943C25.6252 31.2971 25.7462 30.5393 25.8175 30.2013C25.9626 29.5129 26.5232 29.0483 27.0697 29.1635C27.2884 29.2096 27.4716 29.3415 27.6035 29.5272C27.6588 29.4324 27.7151 29.3414 27.7721 29.2549C28.6582 27.9108 29.9992 27.2316 30.7672 27.738C31.5353 28.2443 31.4396 29.7444 30.5535 31.0885C29.9644 31.9821 28.8993 32.9989 28.0258 33.4313C28.7299 34.0201 29.3185 34.7087 29.7107 35.4429C30.8575 37.5897 31.1387 39.6712 28.2043 39.6712H19.426C16.8165 39.4339 17.2313 37.1533 18.4173 34.9414C18.7414 34.3369 19.0676 33.8026 19.4294 33.3465Z" fill="#6B76FF"/>
<path d="M28.3441 19.1879C28.3011 19.0606 28.191 18.9759 28.0679 18.9759H24.5115L26.5629 14.5657C26.6274 14.4269 26.5941 14.2572 26.4831 14.1608C26.4295 14.1139 26.365 14.0908 26.3008 14.0908C26.2321 14.0908 26.1635 14.1175 26.1084 14.17L23.9446 16.2364L19.629 20.3577C19.5359 20.4467 19.5024 20.5903 19.5454 20.7176C19.5884 20.845 19.6982 20.93 19.8213 20.93H23.3776L21.3263 25.3402C21.2618 25.479 21.2951 25.6486 21.4061 25.745C21.4597 25.7919 21.5242 25.815 21.5884 25.815C21.6571 25.815 21.7257 25.7883 21.7808 25.7359L23.9446 23.6695L28.2602 19.5481C28.3536 19.4592 28.3868 19.3156 28.3441 19.1879Z" fill="#FFAC33"/>
<path fill-rule="evenodd" clip-rule="evenodd" d="M33.3383 5.08716L32.4409 3.2998L27.063 6H13C11.8954 6 11 6.89543 11 8V10.4571H36.5801V8C36.5801 6.89543 35.6847 6 34.5801 6H31.5202L33.3383 5.08716Z" fill="#6B76FF"/>
</svg>
