<svg width="148" height="115" viewBox="0 0 148 115" fill="none" xmlns="http://www.w3.org/2000/svg">
<mask id="mask0_158_9200" style="mask-type:alpha" maskUnits="userSpaceOnUse" x="0" y="0" width="148" height="115">
<rect x="0.544922" y="0.454102" width="147.273" height="114.545" fill="#D9D9D9"/>
</mask>
<g mask="url(#mask0_158_9200)">
<path fill-rule="evenodd" clip-rule="evenodd" d="M65.0406 123.341C64.6583 123.037 64.3334 122.69 64.0708 122.296C64.034 122.24 63.998 122.185 63.9629 122.129C63.7397 121.822 63.5391 121.502 63.3611 121.171C60.0485 116.648 56.9835 107.93 56.0814 104.644C54.7791 99.9 57.416 94.773 61.971 93.1921C64.8661 92.1873 67.8392 92.8568 69.956 94.6962C70.0093 90.0788 70.3446 85.8776 70.6508 83.572C71.5815 76.5627 78.23 71.2695 85.5005 71.7492C89.7458 72.0293 93.2645 74.2158 95.2725 77.3823C108.708 67.2609 120.144 72.9027 124.865 79.9894C130.568 88.5503 128.155 99.6359 118.563 107.153C108.868 114.425 88.4506 123.279 75.3263 124.795C71.6839 126.246 67.7083 125.809 65.0406 123.341Z" fill="black"/>
<path d="M36.9879 123.554C33.663 134.084 39.227 137.856 41.8936 139.197C44.8465 140.682 52.8088 140.75 56.63 128.649C60.4512 116.547 62.6485 97.3334 56.7418 95.6473C50.8351 93.9613 40.8091 111.453 36.9879 123.554Z" fill="black"/>
<path d="M102.627 123.006C105.43 133.686 98.6173 138.002 95.13 138.814C93.5476 139.182 82.0341 140.321 78.8129 128.046C75.5917 115.772 75.0608 96.3058 82.2389 94.6339C89.4169 92.9621 99.4061 110.731 102.627 123.006Z" fill="black"/>
<path d="M88.4487 129.136C103.086 129.136 97.1837 112.696 89.4931 98.5737C85.0498 90.4147 74.5767 80.8958 65.5288 83.0046C58.1777 84.7178 56.0033 89.8895 52.4131 96.529C44.8275 110.557 38.3823 127.581 51.1769 129.136H88.4487Z" fill="black"/>
<path d="M98.7167 95.7274C118.946 92.1699 116.689 77.6586 108.689 62.9137C100.292 47.4356 79.3908 34.0939 61.9042 36.1684C47.3512 37.8949 40.6556 46.4201 33.4832 59.1999C26.0352 72.4706 22.6683 86.0415 35.2442 93.4527C38.3436 95.2793 41.9277 96.0818 45.4554 96.7874L47.0052 97.0975C52.8397 98.2646 58.8137 98.5702 64.7369 98.0046L65.2343 97.9571C68.8088 97.6158 72.4079 97.6207 75.9815 97.9719C81.952 98.5585 87.9781 98.1773 93.8271 96.8429L98.7167 95.7274Z" fill="black"/>
<path fill-rule="evenodd" clip-rule="evenodd" d="M121.907 32.5634C116.783 40.3359 106.918 49.3355 99.9262 51.4916C97.5699 54.4995 93.397 55.659 89.7332 54.0586C87.712 53.1757 86.2018 51.6084 85.3555 49.747C82.5841 46.3855 84.6968 30.994 85.7007 26.2307C86.8026 21.0025 91.2937 17.0653 95.4449 17.9402C96.5067 18.164 97.4587 18.6542 98.269 19.3475C97.8952 19.9092 97.6765 20.5275 97.5873 21.1535C97.3385 22.8987 99.0056 22.4152 99.5906 20.7522C99.6232 20.6596 99.656 20.5681 99.6887 20.4769C99.7162 20.3999 99.7437 20.3232 99.7709 20.2464C100.104 19.6902 100.441 19.1525 100.781 18.6361C107.512 8.42684 117.697 3.26838 123.531 7.11432C129.364 10.9603 128.638 22.3542 121.907 32.5634Z" fill="black"/>
<path fill-rule="evenodd" clip-rule="evenodd" d="M18.382 32.5625C23.5058 40.3348 33.371 49.3342 40.3626 51.4905C42.719 54.4985 46.8918 55.658 50.5557 54.0576C52.5766 53.1748 54.0867 51.6078 54.933 49.7468C57.7052 46.3866 55.5924 30.9935 54.5884 26.2299C53.4865 21.0016 48.9953 17.0644 44.8441 17.9393C43.7826 18.1631 42.8308 18.6531 42.0205 19.3462C42.3945 19.908 42.6132 20.5264 42.7025 21.1524C42.9512 22.8977 41.2842 22.4142 40.6991 20.7512C40.6666 20.6586 40.6338 20.5671 40.6011 20.4759C40.5738 20.3996 40.5465 20.3236 40.5196 20.2475C40.1866 19.6906 39.849 19.1521 39.5081 18.6351C32.7778 8.42586 22.5924 3.26741 16.7586 7.11335C10.9248 10.9593 11.6516 22.3532 18.382 32.5625Z" fill="black"/>
</g>
</svg>
