<svg width="48" height="48" viewBox="0 0 48 48" fill="none" xmlns="http://www.w3.org/2000/svg">
<path fill-rule="evenodd" clip-rule="evenodd" d="M24.0005 5C25.1658 5 26.2378 5.39856 27.088 6.06682C27.4436 6.34634 27.927 6.4264 28.3541 6.27749C28.8697 6.09771 29.4237 6 30.0005 6C32.7618 6 35.0005 8.23859 35.0005 11C35.0005 12.7834 34.2054 14.1692 34.0332 14.4485C34.0115 14.4837 33.9912 14.5185 33.9749 14.5565C33.9084 14.7123 33.736 15.1749 33.7513 15.7612C33.7595 16.0768 33.9806 16.3341 34.2629 16.4756C38.8507 18.7742 42 23.5193 42 29C42 36.732 35.732 43 28 43H20C12.268 43 6 36.732 6 29C6 23.519 9.14965 18.7737 13.7377 16.4752C14.0201 16.3338 14.2412 16.0764 14.2494 15.7608C14.2647 15.1749 14.0927 14.7126 14.0262 14.5567C14.0099 14.5185 13.9896 14.4837 13.9678 14.4483C13.7954 14.1687 13.0005 12.7831 13.0005 11C13.0005 8.23859 15.2393 6 18.0005 6C18.5774 6 19.1314 6.09771 19.647 6.27749C20.0741 6.4264 20.5575 6.34634 20.9131 6.06682C21.7633 5.39856 22.8353 5 24.0005 5Z" fill="#E24F57"/>
<path d="M19.6979 10.9746C19.4816 12.0665 19.3084 14.4823 20.3458 15.4104M28.3025 10.9746C28.5188 12.0665 28.692 14.4823 27.6546 15.4104" stroke="#C52A35" stroke-width="2" stroke-linecap="round"/>
<rect x="13" y="14.5078" width="22" height="2" rx="1" fill="#8D1E18"/>
<path d="M13 41.127V33H24V43H20C17.4501 43 15.0593 42.3182 13 41.127Z" fill="#EAACAE"/>
<path d="M13 33V41.127C9.9378 39.3556 7.60872 36.4577 6.57959 33H13Z" fill="#F3E693"/>
<path d="M24 43H28C30.5499 43 32.9407 42.3182 35 41.127V33H24V43Z" fill="#F5F4F5"/>
<path d="M35 41.127V33H41.4204C40.3913 36.4577 38.0622 39.3556 35 41.127Z" fill="#81CBC7"/>
<path fill-rule="evenodd" clip-rule="evenodd" d="M23.9569 16.1866L22.025 15.669L19.8852 23.6548C19.2183 23.8341 18.6625 24.3544 18.4709 25.0694C18.185 26.1363 18.8182 27.233 19.8851 27.5189C20.952 27.8048 22.0487 27.1716 22.3346 26.1047C22.5262 25.3896 22.305 24.6612 21.8171 24.1725L23.9569 16.1866Z" fill="#8D1E18"/>
<path fill-rule="evenodd" clip-rule="evenodd" d="M24.0417 16.1866L25.9735 15.669L28.1133 23.6548C28.7803 23.8341 29.336 24.3544 29.5276 25.0694C29.8135 26.1363 29.1804 27.233 28.1134 27.5189C27.0465 27.8048 25.9498 27.1716 25.6639 26.1047C25.4723 25.3896 25.6935 24.6612 26.1815 24.1725L24.0417 16.1866Z" fill="#8D1E18"/>
</svg>
