<svg width="48" height="48" viewBox="0 0 48 48" fill="none" xmlns="http://www.w3.org/2000/svg">
<path fill-rule="evenodd" clip-rule="evenodd" d="M24.0005 10C25.1658 10 26.2378 10.3986 27.088 11.0668C27.4436 11.3463 27.927 11.4264 28.3541 11.2775C28.8697 11.0977 29.4237 11 30.0005 11C32.7618 11 35.0005 13.2386 35.0005 16C35.0005 17.7834 34.2054 19.1692 34.0332 19.4485C34.0115 19.4837 33.9912 19.5185 33.9749 19.5565C33.9084 19.7123 33.736 20.1749 33.7513 20.7612C33.7595 21.0768 33.9806 21.3341 34.2629 21.4756C38.8507 23.7742 42 28.5193 42 34C42 41.732 35.732 48 28 48H20C12.268 48 6 41.732 6 34C6 28.519 9.14965 23.7737 13.7377 21.4752C14.0201 21.3338 14.2412 21.0764 14.2494 20.7608C14.2647 20.1749 14.0927 19.7126 14.0262 19.5567C14.0099 19.5185 13.9896 19.4837 13.9678 19.4483C13.7954 19.1687 13.0005 17.7831 13.0005 16C13.0005 13.2386 15.2393 11 18.0005 11C18.5774 11 19.1314 11.0977 19.647 11.2775C20.0741 11.4264 20.5575 11.3463 20.9131 11.0668C21.7633 10.3986 22.8353 10 24.0005 10Z" fill="#E24F57"/>
<path d="M19.6979 15.9746C19.4816 17.0665 19.3084 19.4823 20.3458 20.4104M28.3025 15.9746C28.5188 17.0665 28.692 19.4823 27.6546 20.4104" stroke="#C52A35" stroke-width="2" stroke-linecap="round"/>
<rect x="13" y="19.5078" width="22" height="2" rx="1" fill="#8D1E18"/>
<path d="M13 46.127V38H24V48H20C17.4501 48 15.0593 47.3182 13 46.127Z" fill="#EAACAE"/>
<path d="M13 38V46.127C9.9378 44.3556 7.60872 41.4577 6.57959 38H13Z" fill="#F3E693"/>
<path d="M24 48H28C30.5499 48 32.9407 47.3182 35 46.127V38H24V48Z" fill="#F5F4F5"/>
<path d="M35 46.127V38H41.4204C40.3913 41.4577 38.0622 44.3556 35 46.127Z" fill="#81CBC7"/>
<path fill-rule="evenodd" clip-rule="evenodd" d="M23.9569 21.1866L22.025 20.669L19.8852 28.6548C19.2183 28.8341 18.6625 29.3544 18.4709 30.0694C18.185 31.1363 18.8182 32.233 19.8851 32.5189C20.952 32.8048 22.0487 32.1716 22.3346 31.1047C22.5262 30.3896 22.305 29.6612 21.8171 29.1725L23.9569 21.1866Z" fill="#8D1E18"/>
<path fill-rule="evenodd" clip-rule="evenodd" d="M24.0417 21.1866L25.9735 20.669L28.1133 28.6548C28.7803 28.8341 29.336 29.3544 29.5276 30.0694C29.8135 31.1363 29.1804 32.233 28.1134 32.5189C27.0465 32.8048 25.9498 32.1716 25.6639 31.1047C25.4723 30.3896 25.6935 29.6612 26.1815 29.1725L24.0417 21.1866Z" fill="#8D1E18"/>
</svg>
