<svg width="122" height="48" viewBox="0 0 122 48" fill="none" xmlns="http://www.w3.org/2000/svg">
<path d="M32.3477 41.7383H116.956C118.061 41.7383 118.956 42.6337 118.956 43.7383V45.9991C118.956 47.1037 118.061 47.9992 116.956 47.9992H34.3477C33.2431 47.9992 32.3477 47.1037 32.3477 45.9992V41.7383Z" fill="#383948"/>
<path d="M32.0714 41.9366L2.61881 5.34087C1.56566 4.03229 2.49715 2.08691 4.17689 2.08691H71.1443C71.8201 2.08691 72.4501 2.42818 72.8194 2.99418L98.2232 41.9366H32.0714Z" fill="#383948"/>
<path d="M55.4964 30.3963L49.914 20.3535L45.4536 30.3963H55.4964Z" fill="#FF6666"/>
<path d="M45.4536 30.3963L40.7808 20.3535L55.4964 30.3963H45.4536Z" fill="#5243FF"/>
</svg>
