<svg width="60" height="20" viewBox="0 0 60 20" fill="none" xmlns="http://www.w3.org/2000/svg">
<path d="M10.4999 4V13.8H8.58191V7.444L5.82391 11.994H5.59991L2.84191 7.458V13.8H0.909912V4H2.89791L5.71191 8.634L8.51191 4H10.4999Z" fill="#DEE2E6"/>
<path d="M17.5619 6.8H19.3679V13.8H17.5619V12.974C17.0206 13.6553 16.2599 13.996 15.2799 13.996C14.3466 13.996 13.5439 13.6413 12.8719 12.932C12.2093 12.2133 11.8779 11.336 11.8779 10.3C11.8779 9.264 12.2093 8.39133 12.8719 7.682C13.5439 6.96333 14.3466 6.604 15.2799 6.604C16.2599 6.604 17.0206 6.94467 17.5619 7.626V6.8ZM14.2299 11.728C14.5939 12.092 15.0559 12.274 15.6159 12.274C16.1759 12.274 16.6379 12.092 17.0019 11.728C17.3753 11.3547 17.5619 10.8787 17.5619 10.3C17.5619 9.72133 17.3753 9.25 17.0019 8.886C16.6379 8.51267 16.1759 8.326 15.6159 8.326C15.0559 8.326 14.5939 8.51267 14.2299 8.886C13.8659 9.25 13.6839 9.72133 13.6839 10.3C13.6839 10.8787 13.8659 11.3547 14.2299 11.728Z" fill="#DEE2E6"/>
<path d="M22.6169 8.788C22.6169 8.97467 22.7382 9.12867 22.9809 9.25C23.2329 9.362 23.5362 9.46467 23.8909 9.558C24.2456 9.642 24.6002 9.754 24.9549 9.894C25.3096 10.0247 25.6082 10.2487 25.8509 10.566C26.1029 10.8833 26.2289 11.28 26.2289 11.756C26.2289 12.4747 25.9582 13.03 25.4169 13.422C24.8849 13.8047 24.2176 13.996 23.4149 13.996C21.9776 13.996 20.9976 13.4407 20.4749 12.33L22.0429 11.448C22.2482 12.0547 22.7056 12.358 23.4149 12.358C24.0589 12.358 24.3809 12.1573 24.3809 11.756C24.3809 11.5693 24.2549 11.42 24.0029 11.308C23.7602 11.1867 23.4616 11.0793 23.1069 10.986C22.7522 10.8927 22.3976 10.776 22.0429 10.636C21.6882 10.496 21.3849 10.2767 21.1329 9.978C20.8902 9.67 20.7689 9.28733 20.7689 8.83C20.7689 8.13933 21.0209 7.598 21.5249 7.206C22.0382 6.80467 22.6729 6.604 23.4289 6.604C23.9982 6.604 24.5162 6.73467 24.9829 6.996C25.4496 7.248 25.8182 7.612 26.0889 8.088L24.5489 8.928C24.3249 8.452 23.9516 8.214 23.4289 8.214C23.1956 8.214 22.9996 8.26533 22.8409 8.368C22.6916 8.47067 22.6169 8.61067 22.6169 8.788Z" fill="#DEE2E6"/>
<path d="M31.2824 6.604C32.0477 6.604 32.6777 6.86067 33.1724 7.374C33.6764 7.88733 33.9284 8.59667 33.9284 9.502V13.8H32.1224V9.726C32.1224 9.25933 31.9964 8.90467 31.7444 8.662C31.4924 8.41 31.1564 8.284 30.7364 8.284C30.2697 8.284 29.8964 8.42867 29.6164 8.718C29.3364 9.00733 29.1964 9.44133 29.1964 10.02V13.8H27.3904V4H29.1964V7.584C29.635 6.93067 30.3304 6.604 31.2824 6.604Z" fill="#DEE2E6"/>
<path d="M35.5544 10.44V8.704H40.8044V10.44H35.5544Z" fill="#DEE2E6"/>
<path d="M46.2768 13.996C45.1848 13.996 44.2888 13.688 43.5888 13.072C42.8888 12.456 42.5388 11.63 42.5388 10.594V4H44.4568V10.44C44.4568 10.9533 44.6015 11.3593 44.8908 11.658C45.1895 11.9567 45.6515 12.106 46.2768 12.106C46.9021 12.106 47.3595 11.9567 47.6488 11.658C47.9475 11.3593 48.0968 10.9533 48.0968 10.44V4H50.0288V10.594C50.0288 11.63 49.6788 12.456 48.9788 13.072C48.2788 13.688 47.3781 13.996 46.2768 13.996Z" fill="#DEE2E6"/>
<path d="M55.7593 6.604C56.702 6.604 57.5046 6.96333 58.1673 7.682C58.8393 8.39133 59.1753 9.264 59.1753 10.3C59.1753 11.336 58.8393 12.2133 58.1673 12.932C57.5046 13.6413 56.702 13.996 55.7593 13.996C54.7793 13.996 54.0233 13.6553 53.4913 12.974V16.6H51.6853V6.8H53.4913V7.626C54.0233 6.94467 54.7793 6.604 55.7593 6.604ZM54.0373 11.728C54.4013 12.092 54.8633 12.274 55.4233 12.274C55.9833 12.274 56.4453 12.092 56.8093 11.728C57.1826 11.3547 57.3693 10.8787 57.3693 10.3C57.3693 9.72133 57.1826 9.25 56.8093 8.886C56.4453 8.51267 55.9833 8.326 55.4233 8.326C54.8633 8.326 54.4013 8.51267 54.0373 8.886C53.6733 9.25 53.4913 9.72133 53.4913 10.3C53.4913 10.8787 53.6733 11.3547 54.0373 11.728Z" fill="#DEE2E6"/>
</svg>
