<svg width="178" height="150" viewBox="0 0 178 150" fill="none" xmlns="http://www.w3.org/2000/svg">
<mask id="mask0_202_2105" style="mask-type:alpha" maskUnits="userSpaceOnUse" x="0" y="0" width="178" height="150">
<rect width="178" height="150" fill="#D9D9D9"/>
</mask>
<g mask="url(#mask0_202_2105)">
<path fill-rule="evenodd" clip-rule="evenodd" d="M80.7245 162.124C80.2139 161.719 79.7799 161.255 79.4293 160.728C79.3797 160.654 79.3314 160.579 79.2841 160.504C78.9871 160.095 78.7202 159.669 78.4832 159.229C74.0663 153.199 69.9795 141.574 68.7767 137.192C67.0403 130.868 70.5562 124.032 76.6295 121.924C80.4896 120.584 84.4538 121.477 87.2762 123.929C87.3473 117.773 87.7943 112.171 88.2025 109.097C89.4436 99.7513 98.3082 92.6937 108.002 93.3333C113.663 93.7068 118.354 96.6221 121.032 100.844C138.946 87.3487 154.194 94.8712 160.488 104.32C168.092 115.735 164.875 130.516 152.086 140.538C139.159 150.234 111.934 162.04 94.4354 164.061C89.5802 165.995 84.2812 165.412 80.7245 162.124Z" fill="#A8ADD3"/>
<path d="M43.319 162.408C38.8858 176.447 46.3044 181.477 49.8599 183.265C53.7972 185.245 64.4135 185.336 69.5084 169.2C74.6033 153.065 77.5331 127.447 69.6575 125.199C61.7819 122.951 48.4139 146.273 43.319 162.408Z" fill="#E2E4F2"/>
<path d="M130.838 161.676C134.575 175.917 125.491 181.671 120.842 182.754C118.732 183.245 103.38 184.764 99.0855 168.397C94.7906 152.031 94.0828 126.076 103.653 123.847C113.224 121.618 126.543 145.31 130.838 161.676Z" fill="#E2E4F2"/>
<path d="M111.933 169.85C131.45 169.85 123.579 147.929 113.325 129.1C107.401 118.221 93.4365 105.529 81.3726 108.341C71.5712 110.625 68.6719 117.521 63.8849 126.373C53.7709 145.078 45.1772 167.776 62.2367 169.85H111.933Z" fill="white"/>
<path d="M125.624 125.305C152.597 120.562 149.587 101.213 138.921 81.5533C127.725 60.9157 99.8561 43.1268 76.5406 45.8929C57.1366 48.1948 48.2092 59.5618 38.6459 76.6016C28.7153 94.2958 24.2261 112.39 40.9939 122.272C45.1265 124.707 49.9052 125.777 54.6089 126.718L56.6753 127.132C64.4546 128.688 72.42 129.095 80.3175 128.341L80.9808 128.278C85.7468 127.823 90.5456 127.829 95.3104 128.298C103.271 129.08 111.306 128.571 119.104 126.792L125.624 125.305Z" fill="white"/>
<ellipse cx="97.9986" cy="90.8057" rx="5.31209" ry="9.1368" fill="#3C3D45"/>
<ellipse cx="77.0686" cy="90.8057" rx="5.20585" ry="9.1368" fill="#3C3D45"/>
<path fill-rule="evenodd" clip-rule="evenodd" d="M73.5073 74.4361C73.7473 73.9361 74.3473 73.7253 74.8473 73.9653L80.1594 76.5151C80.6594 76.7552 80.8702 77.3551 80.6302 77.8551C80.3901 78.3551 79.7902 78.5659 79.2902 78.3259L73.9781 75.7761C73.4781 75.5361 73.2673 74.9362 73.5073 74.4361Z" fill="#3C3D45"/>
<path fill-rule="evenodd" clip-rule="evenodd" d="M156.544 41.0853C149.712 51.4485 136.558 63.4478 127.236 66.3228C124.094 70.3336 118.53 71.8798 113.645 69.7458C110.95 68.5685 108.936 66.4786 107.808 63.9966C104.113 59.5141 106.93 38.9927 108.268 32.6417C109.738 25.6707 115.726 20.4211 121.261 21.5877C122.676 21.886 123.945 22.5395 125.026 23.4636C124.216 24.6809 123.952 26.0975 124.088 27.4328C124.266 29.1867 125.939 28.5517 126.338 26.8346C126.5 26.1377 126.711 25.5478 126.919 24.9689C126.955 24.8672 126.992 24.7659 127.028 24.6643C127.471 23.9221 127.921 23.2045 128.376 22.5154C137.35 8.90311 150.93 2.02516 158.708 7.15309C166.487 12.281 165.518 27.473 156.544 41.0853Z" fill="white"/>
<path fill-rule="evenodd" clip-rule="evenodd" d="M18.5112 41.0833C25.3428 51.4461 38.4956 63.4448 47.8178 66.3205C50.9594 70.332 56.5239 71.8785 61.4095 69.7444C64.1038 68.5674 66.1172 66.4783 67.2457 63.9972C70.9429 59.5184 68.1255 38.9924 66.7868 32.6405C65.3176 25.6695 59.3294 20.4199 53.7944 21.5865C52.3787 21.8848 51.1095 22.5385 50.029 23.4628C50.8395 24.6803 51.1031 26.0974 50.9673 27.4331C50.7891 29.187 49.1161 28.552 48.7172 26.8348C48.5553 26.138 48.3439 25.5481 48.1364 24.9691C48.0995 24.866 48.0626 24.7632 48.0262 24.6602C47.5828 23.9188 47.1333 23.2019 46.6795 22.5135C37.7056 8.90115 24.1252 2.02321 16.3467 7.15113C8.56825 12.2791 9.53732 27.471 18.5112 41.0833Z" fill="white"/>
</g>
</svg>
