<svg width="48" height="48" viewBox="0 0 48 48" fill="none" xmlns="http://www.w3.org/2000/svg">
<path d="M0 7.38462C0 3.30621 3.3062 0 7.38462 0H40.6154C44.6938 0 48 3.3062 48 7.38462V40.6154C48 44.6938 44.6938 48 40.6154 48H7.38462C3.30621 48 0 44.6938 0 40.6154V7.38462Z" fill="#3F3F59"/>
<path d="M24.2308 11.6154C24.2308 14.1644 22.1644 16.2308 19.6154 16.2308C17.0664 16.2308 15 14.1644 15 11.6154C15 9.06638 17.0664 7 19.6154 7C22.1644 7 24.2308 9.06638 24.2308 11.6154Z" fill="#D4BA5A"/>
<path d="M10.1098 19.529L0 29.9999V40.62C0 44.6959 3.30414 48 7.38 48H40.62C44.6959 48 48 44.6959 48 40.62V36.4614L42.3371 29.54C40.932 27.8228 38.3405 27.7237 36.8085 29.3287L30 36.4614L15.5648 19.6854C14.147 18.0377 11.6197 17.9652 10.1098 19.529Z" fill="#272635"/>
</svg>
