<svg width="32" height="32" viewBox="0 0 32 32" fill="none" xmlns="http://www.w3.org/2000/svg">
<g clip-path="url(#clip0_158_10140)">
<path d="M11.569 6.46498L17.1787 7.52629C17.6255 7.60849 17.9671 7.05453 18.0079 6.61413C18.0325 6.41564 18.1171 6.23156 18.2503 6.08668C18.3834 5.9418 18.5587 5.84309 18.7525 5.80386C19.3595 5.6333 19.8702 5.23052 20.1781 4.67943C20.2151 4.56467 20.2934 4.46928 20.3979 4.41178C20.5024 4.35429 20.6257 4.33881 20.7437 4.36833C21.3873 4.61391 22.3766 5.36604 23.2659 7.23983C24.1698 9.16915 22.9374 10.7034 21.8125 11.5204C21.5098 11.7462 21.5108 12.1997 21.8868 12.2516C23.1048 12.3845 24.4384 11.2013 25.2621 10.2101C25.3138 10.1494 25.3784 10.1012 25.4513 10.0689C25.5244 10.0372 25.6038 10.0214 25.6843 10.0225C25.7646 10.0278 25.8433 10.0502 25.9154 10.0883C25.9878 10.1253 26.0513 10.1784 26.1008 10.2436C29.5347 15.227 28.8939 19.7933 27.6728 22.5267C27.495 22.9197 26.7404 22.3747 26.4175 22.0782C26.2371 21.9081 26.1771 22.1578 26.1187 22.3953C25.8144 23.6936 25.2993 24.9256 24.594 26.0421C24.3457 26.4268 23.6228 25.6587 23.6313 25.2037C23.6284 24.8624 23.2326 25.0136 23.0224 25.2701C20.3682 28.5797 17.7844 29.2496 16.2502 29.1089C15.8536 29.0724 15.7725 28.6121 16.0908 28.3858L19.0414 26.2844C19.1182 26.2303 19.1767 26.1539 19.2095 26.0648C19.2447 25.9755 19.253 25.8769 19.2334 25.7811L18.5576 22.6291C18.5355 22.5329 18.4877 22.444 18.4194 22.3721C18.3506 22.3002 18.2628 22.25 18.1673 22.2278C18.0708 22.2044 17.9707 22.2098 17.8791 22.2434C17.7867 22.2734 17.7072 22.3327 17.6521 22.4127L15.8083 24.8352C15.7413 24.9258 15.6441 24.9886 15.5336 25.0124L11.7749 25.8941C11.6906 25.9138 11.6021 25.9112 11.5176 25.8865C11.4342 25.8614 11.3576 25.8156 11.2952 25.7533L9.36264 23.8158C9.27829 23.7259 9.22901 23.6087 9.22434 23.4869L9.05269 20.9891C9.04635 20.8594 9.08797 20.7336 9.16946 20.6361C9.25366 20.5394 9.37262 20.4804 9.50161 20.4714L10.5957 20.3809C10.726 20.3682 10.8577 20.4081 10.9623 20.4918C11.0668 20.5756 11.1359 20.6965 11.1544 20.8284L11.3073 21.9662C11.3219 22.0791 11.3743 22.1847 11.4556 22.2655C11.5375 22.3481 11.6434 22.4016 11.7565 22.4178L13.5958 22.63C13.6856 22.6398 13.7757 22.6277 13.8585 22.5947C13.9407 22.5611 14.0127 22.5073 14.0683 22.4382L15.6409 20.1904C15.6991 20.1075 15.7293 20.0074 15.7273 19.9043C15.7275 19.8027 15.6944 19.7027 15.6331 19.6201L13.9132 17.1638C13.8651 17.098 13.8028 17.044 13.7312 17.006C12.3703 16.2652 9.79734 14.8829 9.60232 14.8511C8.59344 15.0612 7.5999 15.3325 6.62703 15.6636C6.52273 15.6967 6.40935 15.6936 6.30463 15.6548L4.38932 14.9674C4.31671 14.9394 4.25015 14.8966 4.19388 14.8418L2.60843 13.2547C2.5469 13.1943 2.5018 13.119 2.47773 13.0364C2.4511 12.9544 2.4472 12.8672 2.46645 12.7845L2.75275 11.4962C2.77305 11.4115 2.81509 11.3343 2.87475 11.2723C2.93593 11.2089 3.01375 11.1642 3.09971 11.1432L4.72567 10.6892C4.80352 10.6642 4.87463 10.6225 4.9342 10.5669L6.76476 8.75815C6.80305 8.7213 6.84578 8.68942 6.89202 8.66322L11.2593 6.55205C11.3495 6.48989 11.4581 6.45936 11.569 6.46498Z" fill="url(#paint0_linear_158_10140)"/>
</g>
<defs>
<linearGradient id="paint0_linear_158_10140" x1="2.76236" y1="8.91482" x2="34.7134" y2="23.7631" gradientUnits="userSpaceOnUse">
<stop stop-color="#FF2F61"/>
<stop offset="1" stop-color="#FFB48A"/>
</linearGradient>
<clipPath id="clip0_158_10140">
<rect width="32" height="32" fill="white"/>
</clipPath>
</defs>
</svg>
