<svg width="48" height="48" viewBox="0 0 48 48" fill="none" xmlns="http://www.w3.org/2000/svg">
<g clip-path="url(#clip0_949_8480)">
<path d="M26.0414 9C25.3652 9 24.8467 9.54219 24.9455 10.1461L25.9031 16C25.9031 16 25.9031 16 25.9031 16C17.2737 31.8251 19.6995 41.9714 21.419 46.0111C21.9646 47.293 23.4164 48 24.9824 48H35.9062C37.5151 48 38.9921 47.2534 39.4786 45.914C40.9179 41.9515 42.6759 32.2487 35.0643 16C35.0642 15.9999 35.0643 16.0002 35.0643 16L36.0217 10.1461C36.1205 9.54219 35.602 9 34.9258 9H26.0414Z" fill="white"/>
<path d="M31.9256 9L31.4001 15.9828C33.1177 20.7637 36.1837 31.2045 35.9059 37.7859C35.6609 43.5919 35.2022 47.0951 34.7289 48H35.9059C37.5149 48 38.9919 47.2534 39.4784 45.914C40.9177 41.9515 42.6757 32.2487 35.064 16L36.0214 10.1461C36.1202 9.54219 35.6018 9 34.9255 9H31.9256Z" fill="#D4D2FF"/>
<path d="M7.36679 39.0995C7.30792 38.5108 7.7702 38 8.36182 38H16.1518C16.7435 38 17.2058 38.5108 17.1469 39.0995L16.4369 46.199C16.3347 47.2214 15.4744 48 14.4469 48H10.0668C9.03931 48 8.17898 47.2214 8.07674 46.199L7.36679 39.0995Z" fill="white"/>
<path d="M16.2565 38L14.5396 38L14.042 48H14.5515C15.5791 48 16.4394 47.2214 16.5416 46.199L17.2516 39.0995C17.3104 38.5108 16.8482 38 16.2565 38Z" fill="#D4D2FF"/>
</g>
<defs>
<clipPath id="clip0_949_8480">
<rect width="48" height="48" fill="white"/>
</clipPath>
</defs>
</svg>
