<svg width="48" height="48" viewBox="0 0 48 48" fill="none" xmlns="http://www.w3.org/2000/svg">
<path d="M26.0415 4.5C25.3653 4.5 24.8468 5.04219 24.9456 5.64609L25.9033 11.5C25.9033 11.5 25.9033 11.5 25.9033 11.5C17.2738 27.3251 19.6996 37.4714 21.4191 41.5111C21.9647 42.793 23.4165 43.5 24.9825 43.5H35.9063C37.5152 43.5 38.9923 42.7534 39.4787 41.414C40.9181 37.4515 42.676 27.7487 35.0644 11.5C35.0643 11.4999 35.0644 11.5002 35.0644 11.5L36.0218 5.64609C36.1206 5.04219 35.6022 4.5 34.9259 4.5H26.0415Z" fill="white"/>
<path d="M31.9259 4.5L31.4004 11.4828C33.1179 16.2637 36.1839 26.7045 35.9062 33.2859C35.6611 39.0919 35.2024 42.5951 34.7292 43.5H35.9062C37.5151 43.5 38.9921 42.7534 39.4786 41.414C40.9179 37.4515 42.6759 27.7487 35.0643 11.5L36.0217 5.64609C36.1205 5.04219 35.602 4.5 34.9258 4.5H31.9259Z" fill="#D4D2FF"/>
<path d="M7.36691 34.5995C7.30804 34.0108 7.77032 33.5 8.36195 33.5H16.152C16.7436 33.5 17.2059 34.0108 17.147 34.5995L16.4371 41.699C16.3348 42.7214 15.4745 43.5 14.447 43.5H10.0669C9.03943 43.5 8.1791 42.7214 8.07686 41.699L7.36691 34.5995Z" fill="white"/>
<path d="M16.2567 33.5L14.5398 33.5L14.0421 43.5H14.5517C15.5792 43.5 16.4395 42.7214 16.5417 41.699L17.2517 34.5995C17.3106 34.0108 16.8483 33.5 16.2567 33.5Z" fill="#D4D2FF"/>
</svg>
