<svg width="48" height="48" viewBox="0 0 48 48" fill="none" xmlns="http://www.w3.org/2000/svg">
<path d="M0 8C0 3.58172 3.58172 0 8 0H40C44.4183 0 48 3.58172 48 8V40C48 44.4183 44.4183 48 40 48H8C3.58172 48 0 44.4183 0 40V8Z" fill="#6D80A7"/>
<path d="M32.3078 23.5389C32.3078 24.3036 31.6879 24.9235 30.9232 24.9235C30.1585 24.9235 29.5386 24.3036 29.5386 23.5389C29.5386 22.7742 30.1585 22.1543 30.9232 22.1543C31.6879 22.1543 32.3078 22.7742 32.3078 23.5389Z" fill="white"/>
<path d="M43.3845 17.1541C43.3845 17.9188 42.7646 18.5388 41.9998 18.5388C41.2351 18.5388 40.6152 17.9188 40.6152 17.1541C40.6152 16.3894 41.2351 15.7695 41.9998 15.7695C42.7646 15.7695 43.3845 16.3894 43.3845 17.1541Z" fill="white"/>
<path d="M24.0002 11.5389C24.0002 12.3036 23.3803 12.9235 22.6156 12.9235C21.8509 12.9235 21.231 12.3036 21.231 11.5389C21.231 10.7742 21.8509 10.1543 22.6156 10.1543C23.3803 10.1543 24.0002 10.7742 24.0002 11.5389Z" fill="white"/>
<path d="M13.923 4.23032C13.923 4.99502 13.3031 5.61493 12.5384 5.61493C11.7737 5.61493 11.1538 4.99502 11.1538 4.23032C11.1538 3.46562 11.7737 2.8457 12.5384 2.8457C13.3031 2.8457 13.923 3.46562 13.923 4.23032Z" fill="white"/>
<path d="M36.923 6.077C36.923 6.8417 36.3031 7.46161 35.5384 7.46161C34.7737 7.46161 34.1538 6.8417 34.1538 6.077C34.1538 5.3123 34.7737 4.69238 35.5384 4.69238C36.3031 4.69238 36.923 5.3123 36.923 6.077Z" fill="white"/>
<path d="M6.46161 14.3846C6.46161 15.1493 5.8417 15.7692 5.077 15.7692C4.3123 15.7692 3.69238 15.1493 3.69238 14.3846C3.69238 13.6199 4.3123 13 5.077 13C5.8417 13 6.46161 13.6199 6.46161 14.3846Z" fill="white"/>
<path d="M9.87534 19.7724L0 30.0004V40.62C0 44.6959 3.30414 48 7.38 48H40.62C44.6959 48 48 44.6959 48 40.62V36.462L42.5574 29.81C41.0353 27.9496 38.2279 27.8423 36.5682 29.581L30 36.462L15.785 19.9418C14.249 18.1568 11.511 18.0783 9.87534 19.7724Z" fill="#0E4028"/>
<path fill-rule="evenodd" clip-rule="evenodd" d="M13.5981 18.0894L13.5903 18.0859C13.5428 18.0639 13.3137 17.9581 13.0723 17.9137C12.7572 17.8557 12.469 17.905 12.4353 17.9107L12.4322 17.9113L12.4205 17.9129C12.3238 17.9265 12.0665 17.9627 11.3333 17.9628L11.3055 17.9628L11.2777 17.9638C9.85696 18.0166 8.58862 18.7905 7.65041 19.5524C6.67585 20.3438 5.84231 21.2995 5.26656 22.0547C4.7925 22.6765 4.39238 23.4037 4.06147 24.005C3.93491 24.235 3.81847 24.4466 3.71189 24.6269C3.37157 25.2025 3.11523 25.8169 3.11523 26.6635C3.11523 26.938 3.17172 27.2701 3.36004 27.5936C3.55363 27.926 3.82953 28.1509 4.10847 28.2875C4.59746 28.5268 5.08253 28.4914 5.30157 28.4667C5.7178 28.4198 6.18404 28.2643 6.3486 28.2094L6.34876 28.2094C6.37006 28.2023 6.3863 28.1968 6.3967 28.1936C6.70185 28.0977 7.01316 27.9505 7.21779 27.8537L7.28165 27.8236C7.34867 27.7921 7.40749 27.765 7.45954 27.7416L7.50615 27.8477C7.59926 28.0589 7.72871 28.3444 7.89269 28.6253C8.15106 29.0679 8.84438 30.1158 10.1552 30.1158C11.3319 30.1158 12.1569 29.3362 12.5217 28.9916C12.545 28.9695 12.5664 28.9493 12.5859 28.9312C12.9399 28.602 13.0709 28.5157 13.1014 28.4956C13.1037 28.4941 13.1054 28.493 13.1066 28.4922C13.2905 28.4862 13.5681 28.5561 14.1456 28.7901C14.2025 28.8131 14.2642 28.8387 14.3302 28.866C14.815 29.067 15.529 29.3628 16.256 29.4535C16.8072 29.5222 17.2389 29.4392 17.5564 29.3571C17.6973 29.3206 17.7835 29.2962 17.8436 29.2791L17.8437 29.2791C17.9346 29.2533 17.9662 29.2443 18.0382 29.2361C18.1469 29.2238 18.2078 29.2216 18.2953 29.2185H18.2953C18.3818 29.2155 18.4943 29.2115 18.7045 29.1958C18.9899 29.1746 19.4496 29.1267 19.902 28.9268C20.306 28.7483 20.9539 28.451 21.3763 27.8434C21.8518 27.1594 21.8419 26.4065 21.7728 25.8386C21.5591 24.0834 20.5945 22.3604 19.6655 21.1517C18.6158 19.786 16.7604 18.3447 14.5682 18.3447C14.2643 18.3447 14.0663 18.2951 13.5981 18.0894Z" fill="white"/>
<path d="M40.0882 27.2687L40.0833 27.2666C40.0637 27.2584 40.0176 27.2393 39.9727 27.2226C39.9177 27.2022 39.8083 27.1638 39.6675 27.1394C39.5125 27.1124 39.3794 27.1123 39.2793 27.1187C39.2091 27.1231 39.1411 27.1324 39.1312 27.1338L39.13 27.1339L39.1262 27.1345C39.1006 27.1381 38.9892 27.1541 38.6337 27.1541L38.6075 27.1541L38.5812 27.155C37.6246 27.1886 36.8148 27.6745 36.2718 28.0909C35.6968 28.5319 35.2149 29.0556 34.8863 29.4626C34.5947 29.8239 34.3246 30.2878 34.1473 30.5922C34.0922 30.6868 34.0461 30.7661 34.0111 30.822C33.7853 31.1827 33.5771 31.6337 33.5771 32.2545C33.5771 32.5071 33.633 32.8226 33.8221 33.1293C34.0143 33.4412 34.28 33.6395 34.5286 33.7544C34.9581 33.953 35.3642 33.918 35.5104 33.9024C35.8257 33.8688 36.1786 33.7521 36.2071 33.7427L36.2089 33.7421C36.2301 33.7358 36.2508 33.7293 36.2712 33.7228C36.4824 34.043 37.0281 34.7306 38.0101 34.7306C38.5065 34.7306 38.9034 34.5633 39.1849 34.3935C39.4259 34.248 39.6274 34.0705 39.7295 33.9806L39.7407 33.9708C39.7801 33.9845 39.8278 34.0018 39.8848 34.0236L39.9673 34.0555C40.0861 34.1016 40.2475 34.1643 40.3995 34.2155C40.6024 34.2839 40.8652 34.3599 41.1627 34.395C41.5617 34.4419 41.8752 34.3837 42.0854 34.3323C42.1283 34.3219 42.1688 34.3111 42.1954 34.3041L42.1995 34.303C42.2303 34.2949 42.2458 34.2908 42.2595 34.2875L42.2673 34.2856C42.3054 34.2817 42.3175 34.2816 42.3384 34.2814C42.3682 34.2812 42.416 34.2807 42.5823 34.2691C42.7472 34.2575 43.0812 34.2287 43.4269 34.0844L43.4416 34.0783C43.6505 33.9913 44.1571 33.7804 44.5067 33.3055C44.9348 32.7238 44.9056 32.0952 44.86 31.7409C44.7202 30.6566 44.1103 29.6621 43.5787 29.0088C42.9368 28.22 41.7747 27.3451 40.3463 27.3451C40.3049 27.3451 40.291 27.3417 40.2807 27.3391C40.2582 27.3336 40.2104 27.3193 40.0882 27.2687Z" fill="white"/>
</svg>
