<svg width="48" height="48" viewBox="0 0 48 48" fill="none" xmlns="http://www.w3.org/2000/svg">
<rect x="27.3713" y="3" width="6" height="4" fill="#266530"/>
<path fill-rule="evenodd" clip-rule="evenodd" d="M33.3713 7H27.3713L26.6273 15.9284C24.0957 17.2715 22.3713 19.9344 22.3713 23V43C22.3713 44.1046 23.2668 45 24.3713 45H36.3713C37.4759 45 38.3713 44.1046 38.3713 43V23C38.3713 19.9344 36.647 17.2715 34.1154 15.9284L33.3713 7Z" fill="#3EA64E"/>
<path d="M22.3713 23H38.3713V40H22.3713V23Z" fill="white"/>
<path opacity="0.5" d="M9.73812 36.0995C9.67926 35.5108 10.1415 35 10.7332 35H18.5232C19.1148 35 19.5771 35.5108 19.5182 36.0995L18.8083 43.199C18.706 44.2214 17.8457 45 16.8182 45H12.4381C11.4106 45 10.5503 44.2214 10.4481 43.199L9.73812 36.0995Z" fill="white"/>
<path d="M13.2381 44H16.0182C17.0457 44 17.906 43.2214 18.0082 42.199L18.4281 38H10.8281L11.248 42.199C11.3503 43.2214 12.2106 44 13.2381 44Z" fill="white"/>
</svg>
