<svg width="48" height="48" viewBox="0 0 48 48" fill="none" xmlns="http://www.w3.org/2000/svg">
<rect x="27.3713" y="6" width="6" height="4" fill="#266530"/>
<path fill-rule="evenodd" clip-rule="evenodd" d="M33.3713 10H27.3713L26.6273 18.9284C24.0957 20.2715 22.3713 22.9344 22.3713 26V46C22.3713 47.1046 23.2668 48 24.3713 48H36.3713C37.4759 48 38.3713 47.1046 38.3713 46V26C38.3713 22.9344 36.647 20.2715 34.1154 18.9284L33.3713 10Z" fill="#3EA64E"/>
<path d="M22.3713 26H38.3713V43H22.3713V26Z" fill="white"/>
<path opacity="0.5" d="M9.73812 39.0995C9.67926 38.5108 10.1415 38 10.7332 38H18.5232C19.1148 38 19.5771 38.5108 19.5182 39.0995L18.8083 46.199C18.706 47.2214 17.8457 48 16.8182 48H12.4381C11.4106 48 10.5503 47.2214 10.4481 46.199L9.73812 39.0995Z" fill="white"/>
<path d="M13.2381 47H16.0182C17.0457 47 17.906 46.2214 18.0082 45.199L18.4281 41H10.8281L11.248 45.199C11.3503 46.2214 12.2106 47 13.2381 47Z" fill="white"/>
</svg>
