<svg width="32" height="32" viewBox="0 0 32 32" fill="none" xmlns="http://www.w3.org/2000/svg">
<path fill-rule="evenodd" clip-rule="evenodd" d="M5.8783 15.5251C5.78062 14.5227 5.99673 13.5148 6.49681 12.6403C8.20935 9.51013 11.8354 8.47789 15.1265 9.43368C15.4046 9.51445 15.6933 9.60284 15.9921 9.69431C19.2291 10.6852 23.6489 12.0382 28.602 8C28.7742 9.88768 28.712 14.6523 27.0473 18.6188C24.9664 23.5793 20.575 23.9091 18.1163 23.4503C17.2853 23.2953 15.943 22.8329 14.4653 22.324C11.5703 21.3269 8.15539 20.1507 7.04694 20.755C7.12826 20.5304 8.28111 20.1194 12.2132 20.301C17.1308 20.5256 21.3548 19.0011 25.4448 14.1744C23.4596 16.4109 16.9969 20.3583 7.04215 18.2365C6.38263 17.4748 5.97598 16.5274 5.8783 15.5251ZM5.29906 20.3935C5.53223 20.1847 5.69795 19.9112 5.77515 19.6081C5.87613 19.2065 5.81547 18.7813 5.60618 18.4239C5.3969 18.0665 5.05569 17.8053 4.65579 17.6965C4.35341 17.6151 4.03363 17.6254 3.73714 17.7261C3.44065 17.8268 3.18083 18.0134 2.99075 18.262C2.80066 18.5106 2.68891 18.8101 2.66967 19.1224C2.65043 19.4346 2.72459 19.7456 2.88272 20.0156C3.04085 20.2856 3.27578 20.5026 3.55767 20.6389C3.83955 20.7751 4.15566 20.8245 4.46575 20.7809C4.77584 20.7372 5.06589 20.6023 5.29906 20.3935Z" fill="url(#paint0_linear_240_6331)"/>
<defs>
<linearGradient id="paint0_linear_240_6331" x1="-6.63174" y1="9.43638" x2="21.9444" y2="-8.58864" gradientUnits="userSpaceOnUse">
<stop stop-color="#1CFF77"/>
<stop offset="1" stop-color="#43D2FF"/>
</linearGradient>
</defs>
</svg>
