<svg width="48" height="48" viewBox="0 0 48 48" fill="none" xmlns="http://www.w3.org/2000/svg">
<path d="M18.8541 39.1187C18.7512 37.8641 19.7417 36.7891 21.0006 36.7891H27.0938C28.3527 36.7891 29.3432 37.8641 29.2403 39.1187L28.9205 43.0189C28.8288 44.1363 27.8952 44.9966 26.774 44.9966H21.3204C20.1992 44.9966 19.2656 44.1363 19.1739 43.0189L18.8541 39.1187Z" fill="#BC7C73"/>
<path d="M28.9512 42.6555H19.144L18.854 39.1189C18.7511 37.8642 19.7417 36.7891 21.0007 36.7891H27.0945C28.3535 36.7891 29.344 37.8642 29.2412 39.1189L28.9512 42.6555Z" fill="#995B50"/>
<path fill-rule="evenodd" clip-rule="evenodd" d="M22.1155 11.7597C23.1731 10.7468 24.8266 10.7468 25.8842 11.7597L32.0537 17.6686C33.2402 18.8049 33.1249 20.5237 32.201 21.5677L35.3488 24.6242C37.2115 26.4329 36.7971 29.2746 35.067 30.6649L37.5451 33.0842C40.5797 36.0467 38.5508 41.3188 34.3761 41.3188H13.6239C9.44923 41.3188 7.42027 36.0467 10.4549 33.0842L12.9332 30.6647C11.2032 29.2744 10.7889 26.4328 12.6516 24.6242L15.799 21.5681C14.8749 20.5241 14.7594 18.805 15.946 17.6686L22.1155 11.7597Z" fill="#75B873"/>
<path d="M28.9739 6.77891C28.9419 6.6755 28.8815 6.5842 28.8002 6.51638C28.7188 6.44857 28.6201 6.40724 28.5165 6.39755L25.6304 6.12404L24.4893 3.33625C24.4483 3.23641 24.3801 3.15133 24.2932 3.09156C24.2063 3.03179 24.1045 2.99995 24.0004 3C23.8963 3.00005 23.7946 3.03197 23.7077 3.09182C23.6209 3.15167 23.5528 3.23681 23.5118 3.33668L22.3707 6.12404L19.4842 6.39755C19.3804 6.40717 19.2816 6.44844 19.2002 6.51622C19.1187 6.584 19.0581 6.67529 19.0259 6.77874C18.9938 6.88219 18.9915 6.99322 19.0193 7.09802C19.0472 7.20282 19.104 7.29675 19.1826 7.36813L21.3641 9.36493L20.7208 12.3223C20.6977 12.4282 20.7048 12.5388 20.7414 12.6405C20.778 12.7421 20.8423 12.8303 20.9265 12.8941C21.0107 12.958 21.111 12.9946 21.2149 12.9994C21.3188 13.0043 21.4218 12.9772 21.5112 12.9215L24.0005 11.3687L26.4891 12.9215C26.5785 12.9771 26.6815 13.0042 26.7854 12.9993C26.8893 12.9944 26.9896 12.9578 27.0737 12.894C27.1579 12.8302 27.2223 12.742 27.259 12.6404C27.2956 12.5388 27.3029 12.4282 27.2799 12.3223L26.6366 9.36493L28.8181 7.36856C28.9785 7.22202 29.0397 6.99068 28.9739 6.77891Z" fill="#FDCE5A"/>
<circle cx="21.3546" cy="16.6144" r="1.61536" fill="#FDCE5A"/>
<circle cx="18.048" cy="25.1515" r="1.61536" fill="#FDCE5A"/>
<circle cx="26.7389" cy="30.5363" r="1.61536" fill="#FDCE5A"/>
<circle cx="28.9699" cy="21.8449" r="1.61536" fill="#FDCE5A"/>
<circle cx="13.7404" cy="33.6896" r="1.61536" fill="#FDCE5A"/>
<circle cx="20.278" cy="37.9972" r="1.61536" fill="#FDCE5A"/>
<circle cx="34.2765" cy="35.8429" r="1.61536" fill="#FDCE5A"/>
</svg>
