<svg width="48" height="48" viewBox="0 0 48 48" fill="none" xmlns="http://www.w3.org/2000/svg">
<path d="M18.8541 42.1187C18.7512 40.8641 19.7417 39.7891 21.0006 39.7891H27.0938C28.3527 39.7891 29.3432 40.8641 29.2403 42.1187L28.9205 46.0189C28.8288 47.1363 27.8952 47.9966 26.774 47.9966H21.3204C20.1992 47.9966 19.2656 47.1363 19.1739 46.0189L18.8541 42.1187Z" fill="#BC7C73"/>
<path d="M28.9512 45.6555H19.144L18.854 42.1189C18.7511 40.8642 19.7417 39.7891 21.0007 39.7891H27.0945C28.3535 39.7891 29.344 40.8642 29.2412 42.1189L28.9512 45.6555Z" fill="#995B50"/>
<path fill-rule="evenodd" clip-rule="evenodd" d="M22.1155 14.7597C23.1731 13.7468 24.8266 13.7468 25.8842 14.7597L32.0537 20.6686C33.2402 21.8049 33.1249 23.5237 32.201 24.5677L35.3488 27.6242C37.2115 29.4329 36.7971 32.2746 35.067 33.6649L37.5451 36.0842C40.5797 39.0467 38.5508 44.3188 34.3761 44.3188H13.6239C9.44923 44.3188 7.42027 39.0467 10.4549 36.0842L12.9332 33.6647C11.2032 32.2744 10.7889 29.4328 12.6516 27.6242L15.799 24.5681C14.8749 23.5241 14.7594 21.805 15.946 20.6686L22.1155 14.7597Z" fill="#75B873"/>
<path d="M28.9739 9.77891C28.9419 9.6755 28.8815 9.5842 28.8002 9.51638C28.7188 9.44857 28.6201 9.40724 28.5165 9.39755L25.6304 9.12404L24.4893 6.33625C24.4483 6.23641 24.3801 6.15133 24.2932 6.09156C24.2063 6.03179 24.1045 5.99995 24.0004 6C23.8963 6.00005 23.7946 6.03197 23.7077 6.09182C23.6209 6.15167 23.5528 6.23681 23.5118 6.33668L22.3707 9.12404L19.4842 9.39755C19.3804 9.40717 19.2816 9.44844 19.2002 9.51622C19.1187 9.584 19.0581 9.67529 19.0259 9.77874C18.9938 9.88219 18.9915 9.99322 19.0193 10.098C19.0472 10.2028 19.104 10.2968 19.1826 10.3681L21.3641 12.3649L20.7208 15.3223C20.6977 15.4282 20.7048 15.5388 20.7414 15.6405C20.778 15.7421 20.8423 15.8303 20.9265 15.8941C21.0107 15.958 21.111 15.9946 21.2149 15.9994C21.3188 16.0043 21.4218 15.9772 21.5112 15.9215L24.0005 14.3687L26.4891 15.9215C26.5785 15.9771 26.6815 16.0042 26.7854 15.9993C26.8893 15.9944 26.9896 15.9578 27.0737 15.894C27.1579 15.8302 27.2223 15.742 27.259 15.6404C27.2956 15.5388 27.3029 15.4282 27.2799 15.3223L26.6366 12.3649L28.8181 10.3686C28.9785 10.222 29.0397 9.99068 28.9739 9.77891Z" fill="#FDCE5A"/>
<circle cx="21.3546" cy="19.6144" r="1.61536" fill="#FDCE5A"/>
<circle cx="18.048" cy="28.1515" r="1.61536" fill="#FDCE5A"/>
<circle cx="26.7389" cy="33.5363" r="1.61536" fill="#FDCE5A"/>
<circle cx="28.9699" cy="24.8449" r="1.61536" fill="#FDCE5A"/>
<circle cx="13.7404" cy="36.6896" r="1.61536" fill="#FDCE5A"/>
<circle cx="20.278" cy="40.9972" r="1.61536" fill="#FDCE5A"/>
<circle cx="34.2765" cy="38.8429" r="1.61536" fill="#FDCE5A"/>
</svg>
