<svg width="22" height="27" viewBox="0 0 22 27" fill="none" xmlns="http://www.w3.org/2000/svg">
<path d="M0 11.6041C4.9707 11.6041 9 16.7027 9 22.9924C9 16.7027 13.0293 11.6041 18 11.6041C13.0293 11.6041 9 6.50558 9 0.21582C9 6.50558 4.9707 11.6041 0 11.6041Z" fill="url(#paint0_linear_158_9236)"/>
<path d="M0 11.6041C4.9707 11.6041 9 16.7027 9 22.9924C9 16.7027 13.0293 11.6041 18 11.6041C13.0293 11.6041 9 6.50558 9 0.21582C9 6.50558 4.9707 11.6041 0 11.6041Z" fill="white"/>
<path d="M14 21.7275C16.2092 21.7275 18 23.9935 18 26.789C18 23.9935 19.7908 21.7275 22 21.7275C19.7908 21.7275 18 19.4615 18 16.666C18 19.4615 16.2092 21.7275 14 21.7275Z" fill="url(#paint1_linear_158_9236)"/>
<path d="M14 21.7275C16.2092 21.7275 18 23.9935 18 26.789C18 23.9935 19.7908 21.7275 22 21.7275C19.7908 21.7275 18 19.4615 18 16.666C18 19.4615 16.2092 21.7275 14 21.7275Z" fill="white"/>
<defs>
<linearGradient id="paint0_linear_158_9236" x1="3.4" y1="5.27729" x2="9.04392" y2="18.9484" gradientUnits="userSpaceOnUse">
<stop stop-color="#78F7AB"/>
<stop offset="1" stop-color="#6046FF"/>
</linearGradient>
<linearGradient id="paint1_linear_158_9236" x1="15.5111" y1="18.9156" x2="18.0195" y2="24.9916" gradientUnits="userSpaceOnUse">
<stop stop-color="#78F7AB"/>
<stop offset="1" stop-color="#6046FF"/>
</linearGradient>
</defs>
</svg>
