<svg width="48" height="48" viewBox="0 0 48 48" fill="none" xmlns="http://www.w3.org/2000/svg">
<path d="M32.1214 45.5147L24.5 43.6093V30H23.5V43.6094L15.8789 45.5147L16.0002 46.4998H32.0002L32.1214 45.5147Z" fill="white"/>
<path opacity="0.5" d="M14 8C14 7.44772 14.4477 7 15 7H33C33.5523 7 34 7.44772 34 8V20C34 25.5228 29.5228 30 24 30C18.4772 30 14 25.5228 14 20V8Z" fill="white"/>
<path d="M15 19.9174C15 19.4154 15.407 19 15.9091 19H32.0909C32.593 19 33 19.4154 33 19.9174C33 24.888 28.9706 29 24 29C19.0294 29 15 24.888 15 19.9174Z" fill="#6A0000"/>
</svg>
